<mxfile host="app.diagrams.net" modified="2023-05-18T15:22:44.597Z" agent="Mozilla/5.0 (Windows NT 10.0; Win64; x64) AppleWebKit/537.36 (KHTML, like Gecko) Chrome/111.0.0.0 Safari/537.36" etag="qT9f1RmB3mP-TEBAO9-M" version="21.3.2" type="google">
  <diagram name="Página-1" id="w5t5_IIWQS2FhLQl_rvF">
    <mxGraphModel grid="1" page="1" gridSize="10" guides="1" tooltips="1" connect="1" arrows="1" fold="1" pageScale="1" pageWidth="827" pageHeight="1169" math="0" shadow="0">
      <root>
        <mxCell id="0" />
        <mxCell id="1" parent="0" />
        <mxCell id="UVWly_fjyyAD2rSxHVML-3" value="" style="edgeStyle=orthogonalEdgeStyle;rounded=0;orthogonalLoop=1;jettySize=auto;html=1;strokeWidth=3;fontStyle=1" edge="1" parent="1" source="UVWly_fjyyAD2rSxHVML-1" target="UVWly_fjyyAD2rSxHVML-2">
          <mxGeometry relative="1" as="geometry" />
        </mxCell>
        <mxCell id="UVWly_fjyyAD2rSxHVML-1" value="INICIO" style="ellipse;whiteSpace=wrap;html=1;aspect=fixed;strokeWidth=3;fontStyle=1;fillColor=#b1ddf0;strokeColor=#10739e;" vertex="1" parent="1">
          <mxGeometry x="360" y="40" width="80" height="80" as="geometry" />
        </mxCell>
        <mxCell id="UVWly_fjyyAD2rSxHVML-5" value="" style="edgeStyle=orthogonalEdgeStyle;rounded=0;orthogonalLoop=1;jettySize=auto;html=1;strokeWidth=3;fontStyle=1" edge="1" parent="1" source="UVWly_fjyyAD2rSxHVML-2" target="UVWly_fjyyAD2rSxHVML-4">
          <mxGeometry relative="1" as="geometry" />
        </mxCell>
        <mxCell id="UVWly_fjyyAD2rSxHVML-2" value="numero" style="shape=parallelogram;perimeter=parallelogramPerimeter;whiteSpace=wrap;html=1;fixedSize=1;strokeWidth=3;fontStyle=1;fillColor=#d0cee2;strokeColor=#56517e;" vertex="1" parent="1">
          <mxGeometry x="340" y="210" width="120" height="60" as="geometry" />
        </mxCell>
        <mxCell id="UVWly_fjyyAD2rSxHVML-7" value="" style="edgeStyle=orthogonalEdgeStyle;rounded=0;orthogonalLoop=1;jettySize=auto;html=1;strokeWidth=3;fontStyle=1" edge="1" parent="1" source="UVWly_fjyyAD2rSxHVML-4" target="UVWly_fjyyAD2rSxHVML-6">
          <mxGeometry relative="1" as="geometry" />
        </mxCell>
        <mxCell id="UVWly_fjyyAD2rSxHVML-9" value="" style="edgeStyle=orthogonalEdgeStyle;rounded=0;orthogonalLoop=1;jettySize=auto;html=1;strokeWidth=3;fontStyle=1" edge="1" parent="1" source="UVWly_fjyyAD2rSxHVML-4" target="UVWly_fjyyAD2rSxHVML-8">
          <mxGeometry relative="1" as="geometry" />
        </mxCell>
        <mxCell id="UVWly_fjyyAD2rSxHVML-4" value="numero&amp;lt;10" style="rhombus;whiteSpace=wrap;html=1;strokeWidth=3;fontStyle=1;fillColor=#b0e3e6;strokeColor=#0e8088;" vertex="1" parent="1">
          <mxGeometry x="360" y="340" width="80" height="80" as="geometry" />
        </mxCell>
        <mxCell id="UVWly_fjyyAD2rSxHVML-12" style="edgeStyle=orthogonalEdgeStyle;rounded=0;orthogonalLoop=1;jettySize=auto;html=1;entryX=0.411;entryY=-0.008;entryDx=0;entryDy=0;entryPerimeter=0;strokeWidth=3;fontStyle=1" edge="1" parent="1" source="UVWly_fjyyAD2rSxHVML-6" target="UVWly_fjyyAD2rSxHVML-10">
          <mxGeometry relative="1" as="geometry" />
        </mxCell>
        <mxCell id="UVWly_fjyyAD2rSxHVML-6" value="&quot;Este numero é maior que dez&quot;" style="shape=document;whiteSpace=wrap;html=1;boundedLbl=1;strokeWidth=3;fontStyle=1;fillColor=#bac8d3;strokeColor=#23445d;" vertex="1" parent="1">
          <mxGeometry x="160" y="440" width="120" height="80" as="geometry" />
        </mxCell>
        <mxCell id="UVWly_fjyyAD2rSxHVML-13" style="edgeStyle=orthogonalEdgeStyle;rounded=0;orthogonalLoop=1;jettySize=auto;html=1;entryX=0.561;entryY=-0.017;entryDx=0;entryDy=0;entryPerimeter=0;strokeWidth=3;fontStyle=1" edge="1" parent="1" source="UVWly_fjyyAD2rSxHVML-8" target="UVWly_fjyyAD2rSxHVML-10">
          <mxGeometry relative="1" as="geometry" />
        </mxCell>
        <mxCell id="UVWly_fjyyAD2rSxHVML-8" value="&quot;Este numero é menor que dez" style="shape=document;whiteSpace=wrap;html=1;boundedLbl=1;strokeWidth=3;fontStyle=1;fillColor=#bac8d3;strokeColor=#23445d;" vertex="1" parent="1">
          <mxGeometry x="520" y="440" width="120" height="80" as="geometry" />
        </mxCell>
        <mxCell id="UVWly_fjyyAD2rSxHVML-10" value="FIM" style="ellipse;whiteSpace=wrap;html=1;strokeWidth=3;fontStyle=1;fillColor=#b1ddf0;strokeColor=#10739e;" vertex="1" parent="1">
          <mxGeometry x="340" y="580" width="120" height="80" as="geometry" />
        </mxCell>
      </root>
    </mxGraphModel>
  </diagram>
</mxfile>
